<?xml version="1.0" encoding="iso-8859-1"?>
<!-- Generator: Adobe Illustrator 19.0.0, SVG Export Plug-In . SVG Version: 6.00 Build 0)  -->
<svg version="1.1" id="Layer_1" xmlns="http://www.w3.org/2000/svg" xmlns:xlink="http://www.w3.org/1999/xlink" x="0px" y="0px"
	 viewBox="0 0 512.002 512.002" style="enable-background:new 0 0 512.002 512.002;" xml:space="preserve">
<rect x="175.04" y="478.643" style="fill:#8CC63F;" width="15.637" height="25.019"/>
<rect x="197.974" y="478.643" style="fill:#006837;" width="15.637" height="25.019"/>
<rect x="222.993" y="478.643" style="fill:#D9E021;" width="15.637" height="25.019"/>
<rect x="316.824" y="478.643" style="fill:#8CC63F;" width="15.637" height="25.019"/>
<rect x="340.801" y="478.643" style="fill:#006837;" width="15.637" height="25.019"/>
<rect x="365.82" y="478.643" style="fill:#D9E021;" width="15.637" height="25.019"/>
<polygon style="fill:#8CC63F;" points="452.119,424.434 404.661,171.22 351.768,376.922 365.114,424.434 "/>
<path style="fill:#006837;" d="M404.661,171.22l-13.724,53.411c12.462,66.465,37.452,199.802,37.452,199.802h23.728L404.661,171.22z
	"/>
<polygon style="fill:#8CC63F;" points="369.069,455.707 274.153,36.575 214.831,321.465 242.515,424.434 191.102,424.434 
	183.193,455.707 "/>
<polygon style="fill:#39B54A;" points="274.153,36.575 258.993,109.311 337.43,455.707 369.069,455.707 "/>
<polyline style="fill:#8CC63F;" points="167.748,424.434 242.515,424.434 151.554,76.411 60.594,424.434 136.474,424.434 "/>
<polygon style="fill:#009245;" points="151.554,76.305 135.735,136.884 210.876,424.434 242.515,424.434 "/>
<polygon points="180.812,366.473 169.755,355.416 158.366,366.806 158.366,336.867 142.729,336.867 142.729,396.43 133.354,387.055 
	122.297,398.112 142.729,418.544 142.729,486.981 158.366,486.981 158.366,388.919 "/>
<polygon points="307.366,406.021 296.308,394.965 285.545,405.727 285.545,384.82 269.908,384.82 269.908,486.981 285.545,486.981 
	285.545,427.841 "/>
<polygon points="406.012,135.532 352.096,345.548 274.081,0 214.53,286.966 151.554,46.014 50.469,432.773 136.474,432.773 
	136.474,417.137 70.718,417.137 151.554,107.851 232.389,417.137 167.748,417.137 167.748,432.773 181.108,432.773 173.13,464.047 
	262.611,464.047 262.611,448.41 193.256,448.41 197.245,432.773 252.639,432.773 223.432,321.026 274.725,73.855 359.289,448.41 
	294.927,448.41 294.927,464.047 378.849,464.047 371.789,432.773 388.748,432.773 388.748,417.137 368.258,417.137 359.649,379.008 
	403.603,207.798 442.706,417.137 421.064,417.137 421.064,432.773 461.533,432.773 "/>
<polygon points="432.727,391.179 424.053,378.168 411.682,386.416 411.682,369.184 396.046,369.184 396.046,385.352 385.27,378.168 
	376.596,391.179 396.046,404.144 396.046,486.981 411.682,486.981 411.682,405.209 "/>
<rect x="111.46" y="496.365" width="333.586" height="15.637"/>
<g>
</g>
<g>
</g>
<g>
</g>
<g>
</g>
<g>
</g>
<g>
</g>
<g>
</g>
<g>
</g>
<g>
</g>
<g>
</g>
<g>
</g>
<g>
</g>
<g>
</g>
<g>
</g>
<g>
</g>
</svg>
